<svg width="240" height="240" viewBox="0 0 240 240" fill="none" xmlns="http://www.w3.org/2000/svg">
<circle cx="120" cy="120" r="118.5" stroke="#B6B6B6" stroke-width="3"/>
<path d="M149.948 86.0111L150.103 86.1523L150.296 86.2351L159.767 90.2937L170.999 96.1347L177.249 100.152L180.151 102.385L182.986 104.566L185.101 107.103L186.385 109.244L187.247 110.967L188.083 113.058L188.497 115.541V119.514V121.717L188.278 123.904L188.057 125.679L188.054 125.701L187.614 128.777L185.848 135.398L180.924 146.142L172.395 162.303L168.016 167.558L165.015 170.13L158.898 173.625L148.656 176.742L138.743 178.995L130.239 180.786L122.277 181.228L113.361 180.336L105.744 178.992L92.7498 175.856L79.4425 170.089L75.6142 166.686L70.7438 160.045L66.7145 153.329L63.3671 146.969L60.9018 140.582L58.4351 134.191L56.8858 128.325L56.0026 122.143V116.421L56.423 113.058L58.1025 109.279L60.6823 105.839L63.7416 102.78L68.14 99.2613L84.7168 89.8528L93.6707 86.719L93.9399 86.6247L94.1416 86.423L95.0476 85.517L98.0752 82.4894L105.004 79.025L113.001 77.2479L113.008 77.2463L121.422 75.475L126.562 75.9033L131.417 77.2275L138.856 79.4817L142.848 80.8312L145.151 81.6498L147.457 83.7461L149.948 86.0111Z" fill="white" stroke="#B6B6B6" stroke-width="2.5"/>
<path d="M201.496 106.491L188.093 130.89L188.171 130.522L188.184 130.459L188.191 130.395L189.097 121.788L189.109 121.675L189.1 121.561L188.647 115.672L188.64 115.584L188.621 115.497L187.715 111.42L187.69 111.306L187.644 111.199L186.285 108.028L186.196 107.821L186.041 107.658L181.511 102.901L181.448 102.835L181.375 102.778L174.915 97.731L193.155 59.0796L201.496 106.491Z" fill="#EAEAEA" stroke="#B6B6B6" stroke-width="2.5"/>
<path d="M56.9895 112.16L56.8804 112.338L56.8351 112.542L55.5934 118.136L55.5494 118.334L55.5704 118.535L56.131 123.942L56.1368 123.999L56.1477 124.054L57.1122 128.964L57.1163 128.985L57.121 129.005L57.9453 132.563L57.9532 132.597L57.9629 132.63L59.3602 137.433L59.4712 138.036L59.1364 137.46L59.1293 137.447L59.1218 137.435L52.1978 126.114L52.195 126.11L43.7631 112.191L42.7846 102.753L43.7896 86.2726L45.6387 63.1512L51.3155 71.7371L51.3165 71.7385L58.3321 82.3807L68.1609 98.1748L62.2697 103.628L62.1431 103.745L62.0529 103.892L56.9895 112.16Z" fill="#EAEAEA" stroke="#B6B6B6" stroke-width="2.5"/>
<path d="M103.364 110.658L101.215 106.36L95.8667 89.4235V85.6039L98.9812 82.4894L105.904 79.0281L122.777 75.476L127.458 75.9016L141.779 79.9294L146.03 81.6297L150.276 85.5926L150.001 89.4485L149.123 93.8344L146.446 102.313L143.328 109.439L141.633 112.407L139.526 114.513L136.903 116.699L134.349 118.402L130.053 120.12L123.156 121.413L116.25 120.119L110.683 117.978L106.38 114.105L103.364 110.658Z" fill="#EAEAEA" stroke="#B6B6B6" stroke-width="2.5"/>
<path d="M121.542 121.364L121.72 121.401L121.901 121.386L127.563 120.914L127.734 120.9L127.894 120.84L137.683 117.212L147.64 120.371L155.517 123.656L163.374 126.932L168.28 129.722L171.204 131.464L173.066 134.182L172.656 139.737L170.923 145.159L163.326 159.601L153.175 172.485L138.211 178.908L123.144 181.218L109.324 179.359L102.681 177.974L97.1124 175.741L92.8048 171.7L89.2563 167.538L82.0732 157.709L77.1483 149.307L74.498 143.781L73.2167 139.328V135.028L74.3417 132.291L82.0797 126.913L92.3403 122.727L99.088 120.382L109.061 117.218L116.797 120.354L116.901 120.397L117.012 120.42L121.542 121.364Z" fill="white" stroke="#B6B6B6" stroke-width="2.5"/>
<rect x="98.2407" y="135.726" width="11.778" height="12.2792" fill="#B6B6B6"/>
<rect x="136.293" y="135.726" width="11.778" height="12.2792" fill="#B6B6B6"/>
<rect x="129.045" y="160.284" width="3.62401" height="3.77822" fill="#B6B6B6"/>
<rect x="112.737" y="160.284" width="3.62401" height="3.77822" fill="#B6B6B6"/>
<rect x="116.361" y="164.062" width="13.59" height="3.77822" fill="#B6B6B6"/>
</svg>
