<svg width="240" height="240" viewBox="0 0 240 240" fill="none" xmlns="http://www.w3.org/2000/svg">
<circle cx="120" cy="120" r="118.5" stroke="#B6B6B6" stroke-width="3"/>
<path d="M153.081 82.2607L153.236 82.402L153.429 82.4847L164 87.0151L176.543 93.5374L183.526 98.0266L186.77 100.521L189.945 102.964L192.322 105.816L193.764 108.219L194.73 110.152L195.671 112.505L196.137 115.302V119.747V122.212L195.892 124.662L195.644 126.646L195.642 126.668L195.15 130.111L193.174 137.518L187.674 149.52L178.148 167.568L173.245 173.451L169.877 176.338L163.026 180.253L151.579 183.737L140.514 186.252L131.014 188.252L122.108 188.747L112.143 187.75L103.636 186.249L89.1212 182.745L74.2414 176.297L69.9415 172.475L64.4945 165.047L59.9934 157.546L56.253 150.439L53.4993 143.304L50.7444 136.167L49.0116 129.607L48.0236 122.691V116.287L48.4964 112.505L50.3855 108.254L53.2799 104.395L56.706 100.969L61.6286 97.0309L80.1447 86.5217L90.1468 83.021L90.4161 82.9268L90.6178 82.7251L91.6286 81.7142L95.0231 78.3198L102.791 74.436L111.724 72.4507L111.738 72.4477L121.148 70.4667L126.916 70.9474L132.348 72.4288L140.652 74.9451L145.11 76.4518L147.707 77.3753L150.301 79.7336L153.081 82.2607Z" fill="white" stroke="#B6B6B6" stroke-width="2.5"/>
<path d="M210.647 105.243L195.2 133.363L195.488 131.999L195.501 131.936L195.508 131.872L196.518 122.269L196.53 122.156L196.522 122.042L196.016 115.472L196.009 115.383L195.99 115.297L194.979 110.748L194.954 110.634L194.908 110.527L193.392 106.989L193.303 106.782L193.148 106.619L188.094 101.312L188.031 101.246L187.958 101.189L180.659 95.4865L201.122 52.1245L201.302 52.1245L210.647 105.243Z" fill="#EAEAEA" stroke="#B6B6B6" stroke-width="2.5"/>
<path d="M52.0553 139.706L52.3308 141.204L51.5396 139.842L51.5324 139.829L51.525 139.817L43.7995 127.186L43.7967 127.182L34.3721 111.624L33.2758 101.05L34.3979 82.6493L36.4945 56.4332L43.0596 66.3625L43.0606 66.364L50.889 78.2393L61.9192 95.9638L55.2588 102.129L55.1321 102.246L55.0419 102.394L49.3926 111.617L49.2836 111.796L49.2383 111.999L47.8529 118.241L47.8089 118.439L47.8298 118.64L48.4553 124.673L48.4612 124.729L48.4721 124.785L49.5482 130.263L49.5522 130.283L49.557 130.304L50.4767 134.274L50.4845 134.307L50.4942 134.341L52.0553 139.706Z" fill="#EAEAEA" stroke="#B6B6B6" stroke-width="2.5"/>
<path d="M100.888 109.947L98.4773 105.125L92.5001 86.1972V81.8535L96.0339 78.3198L103.795 74.4392L122.66 70.4677L127.918 70.9457L143.916 75.4453L148.691 77.3552L153.498 81.8422L153.186 86.2222L152.204 91.1324L149.212 100.607L145.727 108.571L143.822 111.906L141.453 114.275L138.516 116.723L135.647 118.635L130.827 120.563L123.091 122.013L115.347 120.561L109.099 118.158L104.272 113.814L100.888 109.947Z" fill="#EAEAEA" stroke="#B6B6B6" stroke-width="2.5"/>
<path d="M121.32 121.67L121.498 121.707L121.679 121.692L127.997 121.165L128.167 121.151L128.327 121.091L139.296 117.025L150.459 120.567L159.253 124.234L168.027 127.894L173.509 131.011L176.8 132.972L178.924 136.072L178.462 142.337L176.519 148.415L168.031 164.551L156.674 178.965L139.929 186.154L123.08 188.737L107.635 186.659L100.205 185.11L93.9555 182.604L89.1238 178.071L85.156 173.417L77.1342 162.44L71.6328 153.055L68.668 146.873L67.2294 141.874V137.028L68.5117 133.908L77.1932 127.874L88.6593 123.197L96.1932 120.579L107.372 117.032L116.051 120.551L116.156 120.593L116.266 120.616L121.32 121.67Z" fill="white" stroke="#B6B6B6" stroke-width="2.5"/>
<rect x="95.2935" y="137.835" width="13.1408" height="13.7" fill="#B6B6B6"/>
<rect x="137.748" y="137.835" width="13.1408" height="13.7" fill="#B6B6B6"/>
<rect x="129.662" y="165.235" width="4.04332" height="4.21538" fill="#B6B6B6"/>
<rect x="111.467" y="165.235" width="4.04332" height="4.21538" fill="#B6B6B6"/>
<rect x="115.51" y="169.45" width="15.1625" height="4.21538" fill="#B6B6B6"/>
</svg>
