<svg width="88" height="86" viewBox="0 0 88 86" fill="none" xmlns="http://www.w3.org/2000/svg">
<path d="M24.2 25.8C27.7009 25.8 31.0583 24.4409 33.5338 22.0217C36.0093 19.6025 37.4 16.3213 37.4 12.9C37.4 9.47871 36.0093 6.19754 33.5338 3.77832C31.0583 1.3591 27.7009 0 24.2 0C20.6991 0 17.3417 1.3591 14.8662 3.77832C12.3907 6.19754 11 9.47871 11 12.9C11 16.3213 12.3907 19.6025 14.8662 22.0217C17.3417 24.4409 20.6991 25.8 24.2 25.8ZM0 37.7024C0 33.497 3.4804 30.1 7.7792 30.1H28.754C27.207 32.7136 26.3948 35.6806 26.4 38.7C26.397 41.1406 26.9269 43.5538 27.9543 45.7783C28.9817 48.0029 30.4828 49.9876 32.3576 51.6H27.5792C25.0994 51.6001 22.6785 52.3395 20.6399 53.7194C18.6014 55.0993 17.042 57.0541 16.17 59.3228C9.5788 57.749 5.4912 54.2359 3.0844 50.3229C0 45.3048 0 40.1448 0 39.2461V37.7024ZM61.6 38.7C61.6054 35.6806 60.7932 32.7135 59.246 30.1H80.2208C84.524 30.1 88 33.5013 88 37.7024V39.2504C88 40.1405 88 45.3048 84.92 50.3229C82.5088 54.2359 78.4212 57.749 71.83 59.3228C70.9586 57.0537 69.3993 55.0986 67.3606 53.7186C65.3219 52.3386 62.9008 51.5995 60.4208 51.6H55.6424C57.5172 49.9876 59.0184 48.0029 60.0457 45.7783C61.0731 43.5538 61.603 41.1406 61.6 38.7ZM77 12.9C77 16.3213 75.6093 19.6025 73.1338 22.0217C70.6583 24.4409 67.3009 25.8 63.8 25.8C60.2991 25.8 56.9417 24.4409 54.4662 22.0217C51.9907 19.6025 50.6 16.3213 50.6 12.9C50.6 9.47871 51.9907 6.19754 54.4662 3.77832C56.9417 1.3591 60.2991 0 63.8 0C67.3009 0 70.6583 1.3591 73.1338 3.77832C75.6093 6.19754 77 9.47871 77 12.9ZM19.8 63.5024C19.8 59.297 23.2804 55.9 27.5792 55.9H60.4208C64.7196 55.9 68.2 59.3013 68.2 63.5024V65.0504C68.2 65.9405 68.2 71.1048 65.12 76.1229C61.8508 81.4291 55.4972 86 44 86C32.5028 86 26.1448 81.4291 22.88 76.1229C19.8 71.1048 19.8 65.9448 19.8 65.0461V63.5024ZM44 51.6C45.7334 51.6 47.4499 51.2663 49.0514 50.618C50.6529 49.9698 52.1081 49.0196 53.3338 47.8217C54.5595 46.6238 55.5319 45.2017 56.1952 43.6366C56.8586 42.0715 57.2 40.3941 57.2 38.7C57.2 37.0059 56.8586 35.3285 56.1952 33.7634C55.5319 32.1983 54.5595 30.7762 53.3338 29.5783C52.1081 28.3804 50.6529 27.4302 49.0514 26.782C47.4499 26.1337 45.7334 25.8 44 25.8C40.4991 25.8 37.1417 27.1591 34.6662 29.5783C32.1907 31.9975 30.8 35.2787 30.8 38.7C30.8 42.1213 32.1907 45.4025 34.6662 47.8217C37.1417 50.2409 40.4991 51.6 44 51.6Z" fill="#13C6B3"/>
</svg>
