<svg width="113" height="113" viewBox="0 0 113 113" fill="none" xmlns="http://www.w3.org/2000/svg">
<path d="M56.5 0C49.1115 0 43.4615 5.65 43.4615 13.0385V39.1154C43.4615 46.5038 49.1115 52.1538 56.5 52.1538H82.5769L99.9615 69.5385V52.1538C107.35 52.1538 113 46.5038 113 39.1154V13.0385C113 5.65 107.35 0 99.9615 0H56.5ZM74.7017 13.0385H82.1684L89.5047 39.1154H82.9855L81.2166 32.5962H74.6973L73.0719 39.1154H67.3654L74.7017 13.0385ZM78.2308 17.3846C77.7962 19.1231 77.3094 21.244 76.8704 22.5478L75.6535 28.25H80.8124L79.5868 22.5435C78.7219 21.244 78.2308 19.1231 78.2308 17.3846ZM13.0385 43.4615C5.65 43.4615 0 49.1115 0 56.5V82.5769C0 89.9654 5.65 95.6154 13.0385 95.6154V113L30.4231 95.6154H56.5C63.8885 95.6154 69.5385 89.9654 69.5385 82.5769V56.5H56.5C48.2423 56.5 41.697 50.85 39.5239 43.4615H13.0385ZM33.0047 56.0915C40.3932 56.0915 43.8701 62.1761 43.8701 69.1299C43.8701 75.2145 41.7796 79.0739 38.3027 80.8124C40.0411 81.6816 42.1012 82.1423 44.2743 82.5769L42.6488 86.9231C39.6065 86.0538 36.4512 84.6978 33.4089 83.3897C32.9743 82.955 32.2137 82.9855 31.7791 82.9855C26.5637 82.5508 21.7308 78.2308 21.7308 69.5385C21.7308 62.15 26.0508 56.0915 33.0047 56.0915ZM33.0047 60.8462C29.5278 60.8462 27.8415 64.7577 27.8415 69.5385C27.8415 74.7538 29.5278 78.2308 33.0047 78.2308C36.4816 78.2308 38.2983 74.3192 38.2983 69.5385C38.2983 64.7577 36.4816 60.8462 33.0047 60.8462Z" fill="#13C6B3"/>
</svg>
