<svg width="30" height="30" viewBox="0 0 30 30" fill="none" xmlns="http://www.w3.org/2000/svg">
<path d="M18.7197 8.52273L18.0805 9.72682C18.3788 9.88558 18.7252 9.92765 19.0527 9.84487C19.3801 9.76209 19.6652 9.56036 19.8525 9.27886L18.7197 8.52273ZM22.1233 3.40909L23.256 4.16591C23.4354 3.89655 23.5131 3.57208 23.4755 3.25055C23.4378 2.92901 23.2872 2.63138 23.0505 2.41091L22.1233 3.40909ZM28.5902 12.9545L29.9489 12.8639C29.9259 12.5186 29.7727 12.195 29.5205 11.9587C29.2682 11.7223 28.9356 11.5908 28.5902 11.5909V12.9545ZM14.9758 12.9545V11.5909C14.6147 11.5909 14.2684 11.7346 14.0131 11.9903C13.7578 12.246 13.6144 12.5929 13.6144 12.9545H14.9758ZM14.9758 17.7273H13.6144C13.6144 18.0889 13.7578 18.4358 14.0131 18.6915C14.2684 18.9472 14.6147 19.0909 14.9758 19.0909V17.7273ZM21.4426 17.7273H22.8041C22.8041 17.3656 22.6606 17.0188 22.4053 16.763C22.15 16.5073 21.8037 16.3636 21.4426 16.3636V17.7273ZM19.8525 9.27886L23.256 4.16591L20.9906 2.65227L17.587 7.76591L19.8525 9.27886ZM22.1233 3.40909C22.4341 3.07798 22.7427 2.74479 23.0491 2.40955L23.0484 2.40818C23.0454 2.40527 23.0422 2.40254 23.0389 2.4C23.0208 2.38302 23.0022 2.36665 22.9831 2.35091C22.8086 2.20593 22.6258 2.07116 22.4358 1.94727C21.9298 1.62265 21.3941 1.34686 20.8361 1.12364C19.4127 0.542727 17.28 0 14.2951 0V2.72727C16.9431 2.72727 18.7252 3.20727 19.8082 3.64909C20.206 3.80699 20.588 4.00218 20.9491 4.23205C21.0396 4.29077 21.127 4.35404 21.2112 4.42159L21.2098 4.42023L21.2044 4.41545C21.203 4.41411 21.2016 4.41275 21.2003 4.41136L21.1982 4.40932C21.5045 4.07396 21.8129 3.74055 22.1233 3.40909ZM14.2951 0C11.0998 0 7.54916 1.4325 4.80042 3.93409C2.02718 6.45682 0 10.1318 0 14.6591H2.72287C2.72287 11.0039 4.3457 8.03182 6.63087 5.95227C8.94055 3.85227 11.8561 2.72727 14.2951 2.72727V0ZM0 14.6591C0 24 7.48313 30 14.9758 30V27.2727C8.8541 27.2727 2.72287 22.3636 2.72287 14.6591H0ZM28.5902 12.9545V11.5909H14.9758V14.3182H28.5902V12.9545ZM13.6144 12.9545V17.7273H16.3372V12.9545H13.6144ZM14.9758 19.0909H21.4426V16.3636H14.9758V19.0909ZM20.0812 17.7273C20.0812 18.2032 19.7258 19.0452 18.7749 19.8273C17.8675 20.5732 16.553 21.1364 14.9758 21.1364V23.8636C17.2106 23.8636 19.1295 23.0639 20.5025 21.9348C21.832 20.8425 22.8041 19.2968 22.8041 17.7273H20.0812ZM14.9758 21.1364C11.1522 21.1364 8.84933 17.8609 8.84933 14.6591H6.12646C6.12646 18.9573 9.26934 23.8636 14.9758 23.8636V21.1364ZM8.84933 14.6591C8.84933 11.7027 11.6022 8.86364 14.9758 8.86364V6.13636C10.1808 6.13636 6.12646 10.1155 6.12646 14.6591H8.84933ZM14.9758 8.86364C16.3372 8.86364 17.457 9.39477 18.0805 9.72682L19.3589 7.31864C18.621 6.92591 17.0173 6.13636 14.9758 6.13636V8.86364ZM14.9758 30C18.8368 30 23.4575 28.4236 26.6025 24.358L24.4514 22.6875C21.9109 25.9698 18.1547 27.2727 14.9758 27.2727V30ZM26.6025 24.358C28.6705 21.6859 30.3144 18.3648 29.9489 12.8639L27.2314 13.0452C27.5466 17.7723 26.1818 20.4505 24.4514 22.6875L26.6025 24.358Z" fill="white"/>
</svg>
