<svg width="78" height="86" viewBox="0 0 78 86" fill="none" xmlns="http://www.w3.org/2000/svg">
<path fill-rule="evenodd" clip-rule="evenodd" d="M0 12.9C0 9.47871 1.36964 6.19754 3.80761 3.77832C6.24559 1.3591 9.55219 0 13 0H65C68.4478 0 71.7544 1.3591 74.1924 3.77832C76.6304 6.19754 78 9.47871 78 12.9V73.1C78 76.5213 76.6304 79.8025 74.1924 82.2217C71.7544 84.6409 68.4478 86 65 86H13C9.55219 86 6.24559 84.6409 3.80761 82.2217C1.36964 79.8025 0 76.5213 0 73.1V12.9ZM21.6667 12.9V43L31.603 33.1401C32.4156 32.334 33.5176 31.8811 34.6667 31.8811C35.8157 31.8811 36.9177 32.334 37.7303 33.1401L47.6667 43V12.9C47.6667 11.7596 47.2101 10.6658 46.3975 9.85944C45.5848 9.05304 44.4826 8.6 43.3333 8.6H26C24.8507 8.6 23.7485 9.05304 22.9359 9.85944C22.1232 10.6658 21.6667 11.7596 21.6667 12.9Z" fill="#13C6B3"/>
</svg>
