<svg width="20" height="20" viewBox="0 0 20 20" fill="none" xmlns="http://www.w3.org/2000/svg">
<g clip-path="url(#clip0_315_748)">
<path fill-rule="evenodd" clip-rule="evenodd" d="M15.4115 0C14.2437 0 13.1237 0.468252 12.2979 1.30175C11.4721 2.13524 11.0082 3.2657 11.0082 4.44444C11.0082 5.62318 11.4721 6.75365 12.2979 7.58714C13.1237 8.42064 14.2437 8.88889 15.4115 8.88889C16.5793 8.88889 17.6993 8.42064 18.5251 7.58714C19.3509 6.75365 19.8148 5.62318 19.8148 4.44444C19.8148 3.2657 19.3509 2.13524 18.5251 1.30175C17.6993 0.468252 16.5793 0 15.4115 0ZM0 15.5556C0 14.3768 0.463917 13.2464 1.28969 12.4129C2.11547 11.5794 3.23547 11.1111 4.40329 11.1111C5.57112 11.1111 6.69111 11.5794 7.51689 12.4129C8.34267 13.2464 8.80658 14.3768 8.80658 15.5556C8.80658 16.7343 8.34267 17.8648 7.51689 18.6983C6.69111 19.5317 5.57112 20 4.40329 20C3.23547 20 2.11547 19.5317 1.28969 18.6983C0.463917 17.8648 0 16.7343 0 15.5556ZM11.0082 12.2222C11.0082 11.9275 11.1242 11.6449 11.3307 11.4365C11.5371 11.2282 11.8171 11.1111 12.1091 11.1111H18.714C19.0059 11.1111 19.2859 11.2282 19.4924 11.4365C19.6988 11.6449 19.8148 11.9275 19.8148 12.2222V17.7778C19.8148 18.3671 19.5829 18.9324 19.17 19.3491C18.7571 19.7659 18.1971 20 17.6132 20H13.2099C12.626 20 12.066 19.7659 11.6531 19.3491C11.2402 18.9324 11.0082 18.3671 11.0082 17.7778V12.2222ZM0 1.11111C0 0.816426 0.115979 0.533811 0.322424 0.325437C0.528868 0.117063 0.808867 0 1.10082 0H7.70576C7.99772 0 8.27772 0.117063 8.48416 0.325437C8.69061 0.533811 8.80658 0.816426 8.80658 1.11111V6.66667C8.80658 7.25604 8.57463 7.82127 8.16174 8.23802C7.74885 8.65476 7.18885 8.88889 6.60494 8.88889H2.20165C1.61773 8.88889 1.05774 8.65476 0.644847 8.23802C0.231958 7.82127 0 7.25604 0 6.66667V1.11111Z" fill="#44425A"/>
</g>
<defs>
<clipPath id="clip0_315_748">
<rect width="19.8148" height="20" fill="white"/>
</clipPath>
</defs>
</svg>
