<svg width="20" height="21" viewBox="0 0 20 21" fill="none" xmlns="http://www.w3.org/2000/svg">
<path fill-rule="evenodd" clip-rule="evenodd" d="M15.5556 0.406738C14.3768 0.406738 13.2464 0.879367 12.4129 1.72065C11.5794 2.56194 11.1111 3.70296 11.1111 4.89272C11.1111 6.08248 11.5794 7.2235 12.4129 8.06479C13.2464 8.90607 14.3768 9.3787 15.5556 9.3787C16.7343 9.3787 17.8648 8.90607 18.6983 8.06479C19.5317 7.2235 20 6.08248 20 4.89272C20 3.70296 19.5317 2.56194 18.6983 1.72065C17.8648 0.879367 16.7343 0.406738 15.5556 0.406738ZM0 16.1077C0 14.9179 0.468252 13.7769 1.30175 12.9356C2.13524 12.0943 3.2657 11.6217 4.44444 11.6217C5.62318 11.6217 6.75365 12.0943 7.58714 12.9356C8.42064 13.7769 8.88889 14.9179 8.88889 16.1077C8.88889 17.2974 8.42064 18.4385 7.58714 19.2797C6.75365 20.121 5.62318 20.5937 4.44444 20.5937C3.2657 20.5937 2.13524 20.121 1.30175 19.2797C0.468252 18.4385 0 17.2974 0 16.1077ZM11.1111 12.7432C11.1111 12.4457 11.2282 12.1605 11.4365 11.9502C11.6449 11.7398 11.9275 11.6217 12.2222 11.6217H18.8889C19.1836 11.6217 19.4662 11.7398 19.6746 11.9502C19.8829 12.1605 20 12.4457 20 12.7432V18.3507C20 18.9455 19.7659 19.5161 19.3491 19.9367C18.9324 20.3573 18.3671 20.5937 17.7778 20.5937H13.3333C12.744 20.5937 12.1787 20.3573 11.762 19.9367C11.3452 19.5161 11.1111 18.9455 11.1111 18.3507V12.7432ZM0 1.52823C0 1.23079 0.117063 0.945538 0.325437 0.735217C0.533811 0.524895 0.816426 0.406738 1.11111 0.406738H7.77778C8.07246 0.406738 8.35508 0.524895 8.56345 0.735217C8.77183 0.945538 8.88889 1.23079 8.88889 1.52823V7.13571C8.88889 7.73059 8.65476 8.3011 8.23802 8.72174C7.82127 9.14239 7.25604 9.3787 6.66667 9.3787H2.22222C1.63285 9.3787 1.06762 9.14239 0.650874 8.72174C0.234126 8.3011 0 7.73059 0 7.13571V1.52823Z" fill="white"/>
</svg>
